PathFileType	4	(X/Y/Z)	/Users/niels/Desktop/University/Third Semester/Perception and Action/Exam/Gymnastics Motion Tracking/Code for Gym Tracking/Analyzed Data/Webcam_Backflip/id2_3_trajectory_Sports2D/id2_3_trajectory_Sports2D_px_person00.trc
DataRate	CameraRate	NumFrames	NumMarkers	Units	OrigDataRate	OrigDataStartFrame	OrigNumFrames
29.71698113207547	29.71698113207547	8	22	m	29.71698113207547	66	106
Frame#	Time	Hip			RHip			RKnee			RAnkle			RBigToe			RSmallToe			RHeel			LHip			LKnee			LAnkle			LBigToe			LSmallToe			LHeel			Neck			Head			Nose			RShoulder			RElbow			RWrist			LShoulder			LElbow			LWrist		
		X1	Y1	Z1	X2	Y2	Z2	X3	Y3	Z3	X4	Y4	Z4	X5	Y5	Z5	X6	Y6	Z6	X7	Y7	Z7	X8	Y8	Z8	X9	Y9	Z9	X10	Y10	Z10	X11	Y11	Z11	X12	Y12	Z12	X13	Y13	Z13	X14	Y14	Z14	X15	Y15	Z15	X16	Y16	Z16	X17	Y17	Z17	X18	Y18	Z18	X19	Y19	Z19	X20	Y20	Z20	X21	Y21	Z21	X22	Y22	Z22
66	2.220952380952381	1.0241237535507874	-0.42283616590589107	0.0	1.0183553974738653	-0.41900787122987854	0.0	1.0580873809284785	-0.535057166429616	0.0	1.0493533997070343	-0.6589225108843422	0.0	1.1045164061950543	-0.6840257753718256	0.0	1.0895350128300572	-0.6910301712065092	0.0	1.03728747614638	-0.6781185346869201	0.0	1.0350050658108116	-0.42010981938312186	0.0	1.062518890043672	-0.5336920387090038	0.0	1.0594893039208322	-0.6533861160099944	0.0	1.1149218174142892	-0.6810483247225627	0.0	1.109561450735326	-0.6734791376450389	0.0	1.0440712967337402	-0.6713732039919008	0.0	1.0723977950295869	-0.24754291395244266	0.0	1.1337351665477722	-0.1922255580824003	0.0	1.1229780170812118	-0.2373658418468549	0.0	1.0426029353774058	-0.2565891405853694	0.0	0.9814336666866549	-0.31907921611874857	0.0	0.96195390878435	-0.3993300949650788	0.0	1.065445138870269	-0.2636067897558015	0.0	1.028900547158558	-0.33708218023053504	0.0	1.0356886075432534	-0.4011126985171738	0.0
67	2.2546031746031745	1.0417392670981487	-0.4217249674726298	0.0	1.0368297331996748	-0.41813236699150774	0.0	1.0769960140367794	-0.5331882869563053	0.0	1.08650030268045	-0.6585626415258742	0.0	1.1448394135502236	-0.678011624839852	0.0	1.130724439191573	-0.6861995574476367	0.0	1.0766050413651131	-0.6793741727116112	0.0	1.0519220108560892	-0.4191899484798864	0.0	1.0824485872034555	-0.5319116946224244	0.0	1.094305441475636	-0.6519648790814916	0.0	1.1536911392927949	-0.6748539862403029	0.0	1.1473623485195863	-0.6682509097751451	0.0	1.0803121933556776	-0.6715924966597573	0.0	1.0903974769211844	-0.24545506615596552	0.0	1.1527308162890144	-0.19015147371327298	0.0	1.1413937742495688	-0.23563309132713373	0.0	1.0615185505530833	-0.2543699392758672	0.0	1.0040646495217365	-0.32074634203166297	0.0	0.9914627797168372	-0.40286363259923536	0.0	1.0827318215256208	-0.2610053739370642	0.0	1.0458588687979224	-0.3355029868019262	0.0	1.0506651916085716	-0.40109212898047986	0.0
68	2.2882539682539678	1.0595173600554209	-0.4243656640316663	0.0	1.0555066975525758	-0.42116708610971965	0.0	1.097531783724494	-0.5348929908973447	0.0	1.1223154353232498	-0.6602682252884055	0.0	1.1829394064346992	-0.6752564325373783	0.0	1.1698731716011925	-0.6840832494579152	0.0	1.1144730686477056	-0.681795925318073	0.0	1.069003950152928	-0.422105996843002	0.0	1.1033082222925106	-0.5338953218065664	0.0	1.127673859805704	-0.6534650479232664	0.0	1.19006558366525	-0.6722542989396537	0.0	1.1829909272812462	-0.6667081624823423	0.0	1.115306420088166	-0.6742686298873797	0.0	1.1082870887299001	-0.24738794500328126	0.0	1.1718249863739179	-0.1918558698503146	0.0	1.159804196664197	-0.23807382392990634	0.0	1.0807225025485512	-0.2566175037854507	0.0	1.0278372903350526	-0.3274862250623326	0.0	1.0227998787000099	-0.41091307719351733	0.0	1.0993740603454492	-0.2621771630056154	0.0	1.0625460007680854	-0.33817629727324805	0.0	1.0672874354827244	-0.4052587687461223	0.0
69	2.3219047619047615	1.07747584008847	-0.4306388753104367	0.0	1.074491279786293	-0.4280305834737719	0.0	1.119699599818582	-0.5403756168371473	0.0	1.1567358784493302	-0.6652102289363241	0.0	1.2191841353825983	-0.6767548208857396	0.0	1.2072718298070217	-0.6858283686820773	0.0	1.1507546442656749	-0.6868799004584304	0.0	1.086164797317635	-0.42870923079816076	0.0	1.1252372935546295	-0.5395056645274706	0.0	1.1598157327625942	-0.6586602669798057	0.0	1.2243079068361429	-0.6740247593129534	0.0	1.2168890686632394	-0.6695310256289038	0.0	1.1492424562934722	-0.680518168413409	0.0	1.1260022728204	-0.25342414314683775	0.0	1.190931731160215	-0.1973015292354972	0.0	1.1780414310011378	-0.24476824211698642	0.0	1.100150692177641	-0.26351783063335593	0.0	1.0525319443346821	-0.3389924027376711	0.0	1.0554279498799897	-0.4231440303760087	0.0	1.1153297782919953	-0.2674119134914142	0.0	1.0791922320107548	-0.34506813912869816	0.0	1.0866381539134675	-0.41320333875701365	0.0
70	2.355555555555555	1.0957717253235908	-0.4407532628609398	0.0	1.0939370834028828	-0.43887269940773416	0.0	1.1432855312225945	-0.5500086368194927	0.0	1.1899707224567087	-0.6743969455706401	0.0	1.2538695673362896	-0.6832663412834905	0.0	1.243145888674096	-0.6923975537519951	0.0	1.18565401133454	-0.6960165460179984	0.0	1.1034242182039857	-0.43912923521692543	0.0	1.1482027949093303	-0.5488046806772708	0.0	1.1910665667323483	-0.6681903042230655	0.0	1.2569063635064432	-0.6807240234704365	0.0	1.2495078042287118	-0.6771887973249311	0.0	1.182472144783718	-0.6913250519024091	0.0	1.1435128647276338	-0.26367716546661074	0.0	1.2098144163480324	-0.20644302203209355	0.0	1.1959500640882572	-0.25562707231565546	0.0	1.119651462501643	-0.275169985079126	0.0	1.0778523666363147	-0.3548407650779701	0.0	1.0886683503512957	-0.4392828868924377	0.0	1.1307084189193866	-0.27700000242721645	0.0	1.0960544928029479	-0.3561514522104364	0.0	1.108789839010839	-0.42452592328466987	0.0
71	2.389206349206349	1.1147520937895599	-0.4552523860616551	0.0	1.114035953666415	-0.45409800623545515	0.0	1.1680487155450723	-0.5643320251826349	0.0	1.2222187748511817	-0.688537511517295	0.0	1.2870254525630078	-0.6955135296578141	0.0	1.2774248303623874	-0.7046586364827263	0.0	1.219373593361309	-0.7102616218079169	0.0	1.1210320670454017	-0.4538021175593641	0.0	1.172134747837915	-0.5621873141200935	0.0	1.2216653696905413	-0.6825760633611351	0.0	1.2884299078219428	-0.6928749748938866	0.0	1.2811362810038533	-0.6900899773708333	0.0	1.2152792232164298	-0.7074009831760629	0.0	1.160765434382497	-0.2783261843853679	0.0	1.2280481092023534	-0.21931833970012396	0.0	1.2134298332555298	-0.2704104428152942	0.0	1.1390030571225285	-0.29167287310899814	0.0	1.1035270552291023	-0.3747127604935455	0.0	1.1219565018647346	-0.4592223669251123	0.0	1.1455934171200457	-0.2911680401730496	0.0	1.1132087690342158	-0.3714977287781643	0.0	1.1329924579944908	-0.4390108388127825	0.0
72	2.4228571428571426	1.1348228498744872	-0.4747328867165065	0.0	1.134993384082917	-0.47419690332131026	0.0	1.1938455676249933	-0.5838330307703604	0.0	1.2533778321640965	-0.7080768613733969	0.0	1.3183279873589784	-0.7142421547474781	0.0	1.3096931895277097	-0.7233635679016107	0.0	1.2517159088083991	-0.7302068043064363	0.0	1.1393859266360693	-0.47327148315414636	0.0	1.1969957494962489	-0.5802295311558509	0.0	1.2514563222117139	-0.7022113147655781	0.0	1.3190252510506943	-0.7110565447163122	0.0	1.3115575565480195	-0.7087433804392081	0.0	1.247339544096199	-0.7290397237775591	0.0	1.1776422888769642	-0.297626147809972	0.0	1.2450705178962511	-0.2360746252454977	0.0	1.2304076872359575	-0.28894861840865754	0.0	1.1579785444954591	-0.31317082929116513	0.0	1.129395679503587	-0.3986028914150526	0.0	1.1549459220903757	-0.4830381397008264	0.0	1.1600741301873474	-0.3101539587747741	0.0	1.1306856839913777	-0.3913756911453308	0.0	1.1581146650693765	-0.45687851093616244	0.0
73	2.4565079365079363	1.1562545003367042	-0.49953459416074864	0.0	1.1569770485689503	-0.4995167417196766	0.0	1.2205708287451598	-0.6086910905360884	0.0	1.282946047330366	-0.7333421859757936	0.0	1.3470702066713072	-0.7399516425669799	0.0	1.3392354638019308	-0.7489008642549053	0.0	1.2819516734799967	-0.7559970756539405	0.0	1.1588946613466033	-0.4979301769954041	0.0	1.2227336473592993	-0.6034278013794574	0.0	1.2798145890846302	-0.7274133839558582	0.0	1.3480270916549433	-0.7357319515493941	0.0	1.3398580665371207	-0.7337250198192723	0.0	1.2775078585220214	-0.7561394652273049	0.0	1.1939834188388827	-0.32178566089812954	0.0	1.2603095226224008	-0.256983177065492	0.0	1.2467479405374073	-0.3112739389413088	0.0	1.1763918976718681	-0.33974035741999253	0.0	1.1553534660870393	-0.42678023231934287	0.0	1.1874214041769555	-0.5109077686653755	0.0	1.1743446429095747	-0.33421171983818226	0.0	1.1487451272543143	-0.4162134202446447	0.0	1.183212841048009	-0.47878134330077643	0.0
